<svg xmlns="http://www.w3.org/2000/svg" width="41.125" height="41.125" viewBox="0 0 41.125 41.125">
  <g id="instagram-svgrepo-com" transform="translate(-1 -1)">
    <path id="Path_42" data-name="Path 42" d="M17.216,28.432A11.216,11.216,0,1,0,6,17.216,11.216,11.216,0,0,0,17.216,28.432Zm0-3.739a7.477,7.477,0,1,0-7.477-7.477A7.477,7.477,0,0,0,17.216,24.693Z" transform="translate(4.347 4.347)" fill="#333" fill-rule="evenodd"/>
    <path id="Path_43" data-name="Path 43" d="M18.869,5a1.869,1.869,0,1,0,1.869,1.869A1.869,1.869,0,0,0,18.869,5Z" transform="translate(13.909 3.477)" fill="#333"/>
    <path id="Path_44" data-name="Path 44" d="M2.222,7.124C1,9.523,1,12.664,1,18.945V24.18C1,30.461,1,33.6,2.222,36a11.215,11.215,0,0,0,4.9,4.9c2.4,1.223,5.54,1.223,11.821,1.223H24.18c6.281,0,9.422,0,11.821-1.223A11.215,11.215,0,0,0,40.9,36c1.223-2.4,1.223-5.54,1.223-11.821V18.945c0-6.281,0-9.422-1.223-11.821a11.215,11.215,0,0,0-4.9-4.9C33.6,1,30.461,1,24.18,1H18.945C12.664,1,9.523,1,7.124,2.222A11.216,11.216,0,0,0,2.222,7.124ZM24.18,4.739H18.945c-3.2,0-5.379,0-7.062.14a8.069,8.069,0,0,0-3.062.675A7.477,7.477,0,0,0,5.554,8.821a8.069,8.069,0,0,0-.675,3.062c-.137,1.683-.14,3.86-.14,7.062V24.18c0,3.2,0,5.379.14,7.062A8.07,8.07,0,0,0,5.554,34.3a7.478,7.478,0,0,0,3.268,3.268,8.067,8.067,0,0,0,3.062.675c1.683.137,3.86.14,7.062.14H24.18c3.2,0,5.379,0,7.062-.14a8.067,8.067,0,0,0,3.062-.675A7.478,7.478,0,0,0,37.571,34.3a8.067,8.067,0,0,0,.675-3.062c.137-1.683.14-3.86.14-7.062V18.945c0-3.2,0-5.379-.14-7.062a8.067,8.067,0,0,0-.675-3.062A7.478,7.478,0,0,0,34.3,5.554a8.07,8.07,0,0,0-3.062-.675C29.559,4.742,27.382,4.739,24.18,4.739Z" fill="#333" fill-rule="evenodd"/>
  </g>
</svg>
