<svg xmlns="http://www.w3.org/2000/svg" width="41.124" height="26.061" viewBox="0 0 41.124 26.061">
  <path id="behance-svgrepo-com" d="M-108.121,178.515a6.511,6.511,0,0,1,1.157,3.888,5.676,5.676,0,0,1-1.173,3.744,6.008,6.008,0,0,1-1.944,1.446,5.689,5.689,0,0,1,2.94,2.249,6.756,6.756,0,0,1,1,3.728,7.264,7.264,0,0,1-1.141,4.049,6.907,6.907,0,0,1-1.8,1.992,7.024,7.024,0,0,1-2.876,1.285,18.023,18.023,0,0,1-3.6.337H-127V175.8h12.291C-111.624,175.848-109.422,176.748-108.121,178.515Zm-13.818,1.7v5.607h6.186a5.1,5.1,0,0,0,2.683-.627,2.4,2.4,0,0,0,1.028-2.233,2.271,2.271,0,0,0-1.366-2.346,9.773,9.773,0,0,0-3-.4Zm0,9.8v6.78h6.186a5.855,5.855,0,0,0,2.571-.45,3.186,3.186,0,0,0,1.671-3.165,2.73,2.73,0,0,0-1.623-2.731,6.568,6.568,0,0,0-2.539-.434Zm31.154-7.214a7.506,7.506,0,0,1,3.246,2.78,9.116,9.116,0,0,1,1.494,3.888,23.533,23.533,0,0,1,.161,3.728H-99.573a4.515,4.515,0,0,0,1.96,3.969,5.06,5.06,0,0,0,2.715.707,4.184,4.184,0,0,0,2.731-.868,3.9,3.9,0,0,0,1.012-1.3h5.013a6.2,6.2,0,0,1-1.816,3.406,9.116,9.116,0,0,1-7.07,2.747,10.23,10.23,0,0,1-6.62-2.314q-2.868-2.314-2.876-7.519,0-4.892,2.587-7.487a9.081,9.081,0,0,1,6.716-2.6A10.313,10.313,0,0,1-90.784,182.805Zm-7.343,4.242a5.261,5.261,0,0,0-1.318,2.908h8.467a4.181,4.181,0,0,0-1.3-2.972,4.346,4.346,0,0,0-2.924-1.012A3.918,3.918,0,0,0-98.127,187.047Zm8.307-10.058h-10.894v3.165H-89.82Z" transform="translate(127 -175.8)" fill="#333"/>
</svg>
