<svg id="Page-1" xmlns="http://www.w3.org/2000/svg" width="41.125" height="41.125" viewBox="0 0 41.125 41.125">
  <g id="Dribbble-Light-Preview">
    <g id="icons">
      <path id="github-_142_" data-name="github-[#142]" d="M104.562,7399a20.827,20.827,0,0,1,20.563,21.083,21.044,21.044,0,0,1-14.05,20c-1.043.208-1.413-.449-1.413-1.012,0-.694.025-2.964.025-5.785a5.1,5.1,0,0,0-1.4-3.9c4.579-.522,9.391-2.306,9.391-10.4a8.249,8.249,0,0,0-2.118-5.658,7.739,7.739,0,0,0-.2-5.581s-1.723-.564-5.649,2.162a19.025,19.025,0,0,0-10.3,0c-3.93-2.726-5.657-2.162-5.657-2.162a7.769,7.769,0,0,0-.2,5.581,8.278,8.278,0,0,0-2.118,5.658c0,8.078,4.8,9.887,9.368,10.42a4.531,4.531,0,0,0-1.306,2.818c-1.172.539-4.15,1.471-5.984-1.751a4.336,4.336,0,0,0-3.152-2.174s-2-.027-.14,1.281a5.547,5.547,0,0,1,2.282,3.084s1.207,3.764,6.928,2.488c.01,1.762.029,3.424.029,3.924,0,.558-.378,1.21-1.4,1.014a21.043,21.043,0,0,1-14.063-20A20.828,20.828,0,0,1,104.562,7399" transform="translate(-84 -7399)" fill="#333" fill-rule="evenodd"/>
    </g>
  </g>
</svg>
