<svg xmlns="http://www.w3.org/2000/svg" width="36.44" height="33.287" viewBox="0 0 36.44 33.287">
  <g id="linked-in-logo-of-two-letters-svgrepo-com" transform="translate(0 -23.916)">
    <g id="Group_3" data-name="Group 3" transform="translate(0 23.916)">
      <path id="Path_39" data-name="Path 39" d="M1.183,201.923H5.921A1.183,1.183,0,0,0,7.1,200.74V180.033a1.183,1.183,0,0,0-1.183-1.183H1.183A1.183,1.183,0,0,0,0,180.033V200.74A1.183,1.183,0,0,0,1.183,201.923Z" transform="translate(0 -168.636)" fill="#333"/>
      <path id="Path_40" data-name="Path 40" d="M1.183,30.489H5.921A1.183,1.183,0,0,0,7.1,29.306V25.1a1.183,1.183,0,0,0-1.183-1.183H1.183A1.183,1.183,0,0,0,0,25.1v4.207A1.183,1.183,0,0,0,1.183,30.489Z" transform="translate(0 -23.916)" fill="#333"/>
      <path id="Path_41" data-name="Path 41" d="M204.234,172.654a7.2,7.2,0,0,0-2.945-2.162,10.663,10.663,0,0,0-4.3-.847,10.526,10.526,0,0,0-8.089,3.644c-.44.483-.76.378-.76-.276v-1.577a1.183,1.183,0,0,0-1.183-1.183h-4.232a1.183,1.183,0,0,0-1.183,1.183v20.706a1.183,1.183,0,0,0,1.183,1.183h4.737a1.183,1.183,0,0,0,1.183-1.183v-7.2a23.168,23.168,0,0,1,.543-6.169,5.094,5.094,0,0,1,2.01-2.68,5.7,5.7,0,0,1,3.312-1.011,4.227,4.227,0,0,1,2.465.708,3.945,3.945,0,0,1,1.479,1.985,21.172,21.172,0,0,1,.455,5.625v8.743a1.183,1.183,0,0,0,1.183,1.183h4.737a1.183,1.183,0,0,0,1.183-1.183V180.415a22.208,22.208,0,0,0-.392-4.778A7.826,7.826,0,0,0,204.234,172.654Z" transform="translate(-169.576 -160.038)" fill="#333"/>
    </g>
  </g>
</svg>
