<svg xmlns="http://www.w3.org/2000/svg" width="44.92" height="56.357" viewBox="0 0 44.92 56.357">
  <path id="logo-astro" d="M6.532,36.8a15.8,15.8,0,0,0-1.2,5.524,6.873,6.873,0,0,0,1.16,3.269,15.634,15.634,0,0,0,4.406,3.539l10.795,7.187a15.435,15.435,0,0,0,4.421,2.459,6.818,6.818,0,0,0,3.158,0,15.537,15.537,0,0,0,4.456-2.442l10.91-7.191a15.813,15.813,0,0,0,4.456-3.553,6.822,6.822,0,0,0,1.158-3.29,15.819,15.819,0,0,0-1.236-5.564L39.47,6.7a8.363,8.363,0,0,0-1.137-2.737A3.648,3.648,0,0,0,36.86,2.894a8.361,8.361,0,0,0-2.947-.257H21.488a8.277,8.277,0,0,0-2.947.263,3.606,3.606,0,0,0-1.474,1.078,8.294,8.294,0,0,0-1.126,2.737L6.532,36.8ZM34.4,9.011a7.008,7.008,0,0,1,.928,2.3l8.193,26.911a34.034,34.034,0,0,0-9.795-3.311L28.406,16.893a.7.7,0,0,0-1.08-.356.68.68,0,0,0-.25.356L21.813,34.905a33.975,33.975,0,0,0-9.839,3.324L20.2,11.318a6.907,6.907,0,0,1,.93-2.3,3.069,3.069,0,0,1,1.225-.905A6.968,6.968,0,0,1,24.829,7.9h5.879a6.976,6.976,0,0,1,2.476.211,3.061,3.061,0,0,1,1.227.909ZM28.06,41.456a11.685,11.685,0,0,0,7.157-1.943,5.894,5.894,0,0,1-.436,4.593,8.29,8.29,0,0,1-3.257,3.118c-1.419.9-2.64,1.684-2.64,3.762a4.376,4.376,0,0,0,.44,1.924,5.242,5.242,0,0,1-3.231-4.842V47.94c0-1.438,0-3.208-2.025-3.208a2.151,2.151,0,0,0-2.151,2.145,7.934,7.934,0,0,1-2.08-5.566,8.854,8.854,0,0,1,.368-2.627c.842,1.594,4.042,2.779,7.854,2.779Z" transform="translate(-5.328 -2.603)" fill="#222" fill-rule="evenodd"/>
</svg>
