<svg xmlns="http://www.w3.org/2000/svg" width="77.415" height="58.001" viewBox="0 0 77.415 58.001">
  <path id="sass-svgrepo-com" d="M68.653,38.871A16.034,16.034,0,0,0,61.639,40.5a14.776,14.776,0,0,1-1.57-3.633,9.759,9.759,0,0,1-.141-3.041,27.126,27.126,0,0,1,.918-3.3c-.014-.141-.169-.807-1.725-.829s-2.9.3-3.041.708a17.061,17.061,0,0,0-.65,2.306,54.423,54.423,0,0,1-4.736,9.106,8.808,8.808,0,0,1-1.216-5.712,27.123,27.123,0,0,1,.918-3.3c-.014-.141-.169-.807-1.725-.829s-2.9.3-3.041.708S45.3,34.072,44.98,35s-4.1,9.361-5.09,11.536c-.509,1.106-.948,2.007-1.258,2.615h0a.643.643,0,0,1-.055.113c-.276.522-.423.807-.423.807v.014c-.213.382-.44.735-.553.735a4.73,4.73,0,0,1,.028-2.4c.553-2.928,1.908-7.478,1.894-7.636,0-.086.254-.876-.876-1.286a1.4,1.4,0,0,0-1.6.276c-.1,0-.169.241-.169.241s1.23-5.117-2.347-5.117a10.657,10.657,0,0,0-6.842,4.653c-.962.522-3.011,1.639-5.2,2.842-.829.467-1.7.934-2.5,1.382-.055-.055-.113-.127-.169-.182C15.463,38.949,7.46,35.676,7.805,29.469c.127-2.261.9-8.2,15.368-15.412,11.9-5.866,21.378-4.241,23.018-.636,2.347,5.148-5.076,14.7-17.375,16.09a9.264,9.264,0,0,1-7.777-1.966c-.65-.708-.749-.749-.99-.608-.4.213-.141.849,0,1.216a7.26,7.26,0,0,0,4.44,3.492,23.637,23.637,0,0,0,14.423-1.429c7.464-2.883,13.27-10.9,11.567-17.616C48.768,5.785,37.458,3.538,26.754,7.347A53.909,53.909,0,0,0,8.521,17.806c-5.9,5.515-6.828,10.306-6.447,12.316,1.382,7.127,11.2,11.763,15.128,15.2-.2.113-.382.213-.536.3C14.7,46.6,7.208,50.516,5.331,54.657c-2.12,4.7.34,8.059,1.966,8.512a12.092,12.092,0,0,0,13.021-5.275A13.062,13.062,0,0,0,21.487,45.86a.3.3,0,0,0-.055-.086l1.54-.9c1-.594,1.993-1.145,2.842-1.6a18.633,18.633,0,0,0-1,5.148,10.743,10.743,0,0,0,2.306,7.464,2.546,2.546,0,0,0,1.866.608c1.659,0,2.419-1.382,3.251-3.024,1.017-2.007,1.935-4.34,1.935-4.34s-1.145,6.306,1.966,6.306c1.131,0,2.275-1.471,2.787-2.212v.014s.028-.041.086-.141l.182-.3v-.028c.453-.791,1.471-2.588,2.983-5.571C44.123,43.356,46,38.548,46,38.548a24.573,24.573,0,0,0,.749,3.124,29.425,29.425,0,0,0,1.612,3.619c-.453.636-.735.99-.735.99l.014.014c-.368.481-.763,1-1.2,1.512a45.064,45.064,0,0,0-3.633,4.553,1.236,1.236,0,0,0,.34,1.659,3.085,3.085,0,0,0,1.894.312,8.7,8.7,0,0,0,2.842-.65A9.537,9.537,0,0,0,50.329,52.4a5.474,5.474,0,0,0,2.347-4.821,9.734,9.734,0,0,0-.89-3.409c.141-.2.276-.4.409-.594a64.766,64.766,0,0,0,4.241-7.323,24.57,24.57,0,0,0,.749,3.124,20.928,20.928,0,0,0,1.382,3.11A13.438,13.438,0,0,0,54.429,47.8c-.89,2.574-.2,3.732,1.106,4a3.94,3.94,0,0,0,2.065-.423,9.4,9.4,0,0,0,2.615-1.344,5.877,5.877,0,0,0,2.883-4.78,9.035,9.035,0,0,0-.65-2.828,14.807,14.807,0,0,1,7.508-.863c6.729.791,8.059,4.99,7.8,6.759a4.473,4.473,0,0,1-2.134,3.024c-.467.3-.622.4-.581.608.055.312.276.3.677.241a5.253,5.253,0,0,0,3.682-4.672c.213-4.147-3.746-8.694-10.746-8.653ZM16.735,56.365c-2.234,2.433-5.344,3.351-6.687,2.574-1.443-.829-.876-4.423,1.866-7a35.618,35.618,0,0,1,5.253-3.917c.326-.2.807-.481,1.382-.829l.155-.086h0l.34-.213a9.657,9.657,0,0,1-2.308,9.471ZM32.993,45.307c-.777,1.894-2.4,6.745-3.392,6.475-.849-.227-1.382-3.9-.169-7.536A17.121,17.121,0,0,1,32.075,39.4c1.216-1.357,2.56-1.811,2.883-1.258a25.052,25.052,0,0,1-1.966,7.168Zm13.416,6.419c-.326.169-.636.276-.777.2-.1-.055.141-.276.141-.276s1.684-1.811,2.347-2.629c.382-.481.829-1.045,1.316-1.684v.182c0,2.162-2.093,3.619-3.024,4.213Zm10.35-2.361c-.241-.169-.2-.735.608-2.5a9.421,9.421,0,0,1,2.306-2.969,4,4,0,0,1,.227,1.3,4.277,4.277,0,0,1-3.138,4.172Z" transform="translate(-2 -5.501)" fill="#222"/>
</svg>
