<svg xmlns="http://www.w3.org/2000/svg" width="58.002" height="58.001" viewBox="0 0 58.002 58.001">
  <g id="logo-ts" transform="translate(0 -27.269)" style="isolation: isolate">
    <path id="Exclusion_1" data-name="Exclusion 1" d="M-4850.454-2305.261h-34a11.92,11.92,0,0,1-8.485-3.515,11.92,11.92,0,0,1-3.515-8.486v-34a11.92,11.92,0,0,1,3.515-8.486,11.92,11.92,0,0,1,8.485-3.515h34a11.923,11.923,0,0,1,8.485,3.515,11.923,11.923,0,0,1,3.516,8.486v34a11.922,11.922,0,0,1-3.516,8.486A11.922,11.922,0,0,1-4850.454-2305.261Zm-10.12-11.685v5.445a12.126,12.126,0,0,0,3.29,1.067,21.587,21.587,0,0,0,3.97.351,18.579,18.579,0,0,0,3.856-.386,9.815,9.815,0,0,0,3.176-1.247,5.56,5.56,0,0,0,2.156-2.383,8.609,8.609,0,0,0,.8-3.63,7.456,7.456,0,0,0-.464-2.722,5.324,5.324,0,0,0-1.362-2.042,8.959,8.959,0,0,0-2.041-1.588,25.157,25.157,0,0,0-2.723-1.362c-.459-.188-.872-.373-1.271-.553l-.012-.005c-.232-.1-.5-.223-.76-.338a8.8,8.8,0,0,1-1.475-.885,4.071,4.071,0,0,1-.963-.952,1.982,1.982,0,0,1-.34-1.134,1.916,1.916,0,0,1,.306-1.055,2.652,2.652,0,0,1,.85-.8,4.418,4.418,0,0,1,1.362-.522,7.923,7.923,0,0,1,1.815-.182,10.441,10.441,0,0,1,1.475.107,12.126,12.126,0,0,1,1.589.329,12.758,12.758,0,0,1,1.588.555,7.547,7.547,0,0,1,1.361.783v-5.332a14.14,14.14,0,0,0-2.836-.737,22.917,22.917,0,0,0-3.517-.238,17.206,17.206,0,0,0-3.857.431,9.017,9.017,0,0,0-3.175,1.362,6.487,6.487,0,0,0-2.155,2.383,6.709,6.709,0,0,0-.794,3.4,6.357,6.357,0,0,0,1.475,4.311,12.123,12.123,0,0,0,4.424,3.063c.683.278,1.292.552,1.881.818l.274.123a9.783,9.783,0,0,1,1.7.954,4.146,4.146,0,0,1,1.134,1.078,2.243,2.243,0,0,1,.43,1.36,2.125,2.125,0,0,1-.261,1.021,2.239,2.239,0,0,1-.8.817,4.617,4.617,0,0,1-1.362.544,8.317,8.317,0,0,1-1.928.193,10.315,10.315,0,0,1-3.63-.646A10.467,10.467,0,0,1-4860.573-2316.946Zm-15.314-14.179v20.758h5.786v-20.758h7.26v-4.651h-20.306v4.651Z" transform="translate(4896.454 2390.532)" fill="#222"/>
  </g>
</svg>
