<svg xmlns="http://www.w3.org/2000/svg" width="38.598" height="38.597" viewBox="0 0 38.598 38.597">
  <g id="javascript-svgrepo-com" transform="translate(0 0)">
    <path id="Exclusion_2" data-name="Exclusion 2" d="M-5310.4-3503.4H-5349V-3542h38.6v38.6Zm-12.67-8.442h0l-2.953,1.71a6.513,6.513,0,0,0,2.438,2.639,7.933,7.933,0,0,0,4.167,1.066,6.812,6.812,0,0,0,4.3-1.3,4.614,4.614,0,0,0,1.713-3.75c0-3.041-1.767-4.392-4.819-5.7l-.906-.389c-1.515-.657-2.228-1.088-2.228-2.2a1.58,1.58,0,0,1,1.735-1.554,2.476,2.476,0,0,1,2.332,1.554l2.824-1.814a5.348,5.348,0,0,0-5.156-2.9c-3.127,0-5.311,1.971-5.311,4.794a4.925,4.925,0,0,0,1.2,3.423,8.585,8.585,0,0,0,3.157,2.043l.908.388c1.647.722,2.642,1.157,2.642,2.41,0,1.07-.989,1.788-2.461,1.788a3.981,3.981,0,0,1-3.576-2.2Zm-12.826.312h0l-2.953,1.788a5.607,5.607,0,0,0,5.441,3.316,5.5,5.5,0,0,0,3.912-1.325,5.445,5.445,0,0,0,1.5-4.142v-12.384h-3.626v12.332c0,1.62-.563,2.281-1.944,2.281-1.278,0-1.79-.906-2.332-1.866Z" transform="translate(5349 3542)" fill="#222222"/>
  </g>
</svg>
