<svg xmlns="http://www.w3.org/2000/svg" width="60.279" height="52.242" viewBox="0 0 60.279 52.242">
  <g id="logo-react" transform="translate(0)">
    <path id="Path_17" data-name="Path 17" d="M24.086,18.6A5.385,5.385,0,1,0,18.7,23.817,5.3,5.3,0,0,0,24.086,18.6Z" transform="translate(11.435 7.475)" fill="#222"/>
    <path id="Path_18" data-name="Path 18" d="M48.621,19.383C49.758,14.9,51.186,6.6,46.15,3.784,41.136.981,34.612,6.352,31.167,9.577,27.732,6.384,21.025,1.036,15.993,3.86c-5.011,2.813-3.466,10.98-2.3,15.487C9.014,20.634,1,23.407,1,29.072c0,5.649,8.005,8.666,12.652,9.952-1.166,4.532-2.634,12.582,2.384,15.389,5.051,2.824,11.738-2.4,15.215-5.657,3.467,3.243,9.928,8.5,14.943,5.685,5.03-2.823,3.72-11.017,2.558-15.55,4.5-1.289,12.527-4.24,12.527-9.819C61.279,23.462,53.222,20.666,48.621,19.383ZM48.05,36.489A57.568,57.568,0,0,0,45,29.085a57.518,57.518,0,0,0,2.934-7.3C51.3,22.737,58.7,24.9,58.7,29.072,58.7,33.28,51.6,35.467,48.05,36.489ZM44.9,52.28c-3.741,2.1-9.3-2.926-11.859-5.315A58.978,58.978,0,0,0,38.1,40.744a61.83,61.83,0,0,0,8.164-1.22C47.078,42.73,48.661,50.171,44.9,52.28Zm-27.58-.03c-3.742-2.092-2.031-9.276-1.174-12.614a62.3,62.3,0,0,0,8.123,1.14,61.169,61.169,0,0,0,5.174,6.2C27.272,49.014,21.082,54.351,17.323,52.25ZM3.575,29.072c0-4.223,7.355-6.375,10.805-7.32a58.785,58.785,0,0,0,2.938,7.381,59.653,59.653,0,0,0-2.975,7.486C11.054,35.706,3.575,33.3,3.575,29.072ZM17.283,6.021c3.757-2.109,9.586,3.027,12.08,5.338a60.219,60.219,0,0,0-5.135,6.161,64.745,64.745,0,0,0-8.044,1.212C15.248,15.1,13.53,8.127,17.283,6.021ZM39.939,20.234c1.923.235,3.766.548,5.5.931A52.214,52.214,0,0,1,43.506,26.2Q41.848,23.148,39.939,20.234Zm-8.771-7.091A53.82,53.82,0,0,1,34.715,17.3q-3.56-.163-7.125,0C28.762,15.8,29.962,14.405,31.168,13.143ZM18.8,26.2a54.019,54.019,0,0,1-1.915-5.057c1.72-.373,3.554-.678,5.465-.91Q20.427,23.13,18.8,26.2Zm3.6,11.9c-1.974-.214-3.836-.5-5.555-.866a54.928,54.928,0,0,1,1.954-5.16Q20.45,35.162,22.4,38.094Zm8.84,7.084c-1.22-1.277-2.438-2.689-3.627-4.208,2.387.091,4.779.091,7.166-.012A53.47,53.47,0,0,1,31.239,45.178Zm12.291-13.2a52.054,52.054,0,0,1,2.024,5.141,56.2,56.2,0,0,1-5.623.93C41.216,36.074,42.421,34.051,43.53,31.978Zm-6.871,6.373a83.357,83.357,0,0,1-10.978.021,70.172,70.172,0,0,1-5.518-9.24,70.14,70.14,0,0,1,5.487-9.223,74.891,74.891,0,0,1,10.988,0,78.64,78.64,0,0,1,5.5,9.185A78.657,78.657,0,0,1,36.659,38.352Zm8.2-32.4c3.758,2.1,2.085,9.566,1.264,12.811a63.487,63.487,0,0,0-8.06-1.235,59.031,59.031,0,0,0-5.1-6.166C35.5,9,41.142,3.866,44.863,5.947Z" transform="translate(-1 -3)" fill="#222" fill-rule="evenodd"/>
  </g>
</svg>
