<svg xmlns="http://www.w3.org/2000/svg" width="74.87" height="44.922" viewBox="0 0 74.87 44.922">
  <path id="logo-tailwind" d="M20.717,23.074Q24.461,8.1,39.435,8.1c14.974,0,16.846,11.23,24.333,13.1q7.487,1.872,13.1-5.615Q73.126,30.561,58.152,30.561c-14.974,0-16.846-11.23-24.333-13.1Q26.333,15.587,20.717,23.074ZM2,45.535Q5.743,30.561,20.717,30.561c14.974,0,16.846,11.23,24.333,13.1q7.487,1.872,13.1-5.615Q54.409,53.022,39.435,53.022c-14.974,0-16.846-11.23-24.333-13.1Q7.615,38.048,2,45.535Z" transform="translate(-2 -8.1)" fill="#222"/>
</svg>
