<svg width="800" height="800" viewBox="0 0 800 800" fill="none" xmlns="http://www.w3.org/2000/svg">
<path d="M683.192 642.559C673.003 642.559 663.516 636.074 660.172 625.859C656.012 613.143 662.946 599.458 675.669 595.297C721.759 580.212 751.535 539.815 751.535 492.375C751.535 432.295 702.659 383.412 642.58 383.412C638.407 383.412 633.917 383.741 628.452 384.45L604.761 387.522L601.36 363.868C586.801 262.441 498.446 185.953 395.836 185.953C311.009 185.953 235.49 236.736 203.466 315.333L197.437 330.121L181.478 330.412C108.138 331.761 48.471 392.499 48.471 465.802C48.471 519.315 79.5396 568.116 127.618 590.123C139.783 595.696 145.134 610.072 139.562 622.237C133.989 634.402 119.62 639.741 107.454 634.187C42.1763 604.309 0 538.219 0 465.802C0 371.569 72.6052 292.63 164.829 282.934C207.322 194.084 296.38 137.5 395.83 137.5C514.861 137.5 618.332 220.955 645.164 334.984C730.776 336.371 800 406.444 800 492.381C800 560.099 756.089 619.963 690.741 641.35C688.239 642.167 685.693 642.559 683.192 642.559Z" fill="#262626"/>
<path d="M312.552 653.041C312.545 653.035 312.545 653.035 312.539 653.035C312.533 653.035 312.526 653.029 312.52 653.029H312.514L312.507 653.022L312.501 653.016C312.501 653.016 312.495 653.016 312.495 653.01H312.488L312.482 653.004C312.488 652.997 312.476 652.997 312.476 652.997L312.469 652.991H312.463L312.457 652.985C312.463 652.991 312.451 652.978 312.451 652.978C312.451 652.978 312.438 652.972 312.432 652.972L312.425 652.966L312.419 652.959L312.413 652.953C312.394 652.947 312.4 652.947 312.394 652.947C312.387 652.953 312.387 652.94 312.381 652.94L312.375 652.934C312.375 652.934 312.368 652.928 312.362 652.928L312.356 652.921C312.349 652.915 312.337 652.915 312.33 652.915C312.324 652.915 312.311 652.909 312.305 652.909C312.299 652.902 312.299 652.902 312.292 652.902H312.286C312.28 652.896 312.273 652.896 312.267 652.896C312.261 652.89 312.248 652.89 312.248 652.89H312.242L312.229 652.883C312.223 652.883 312.223 652.877 312.223 652.877H312.217C311.843 652.744 311.445 652.662 311.028 652.643H311.015H311.002H310.99C310.99 652.643 310.99 652.643 310.983 652.643H310.977H310.971L310.964 652.637H310.952H310.939H310.933H310.926H310.92H310.907H310.901H310.895H310.888H310.882H310.876H310.869H310.863H310.857C300.384 652.637 291.815 644.112 291.752 633.664V420.757H307.986H308.068C310.553 420.864 312.248 418.954 312.248 416.659C312.248 414.945 311.198 413.478 309.706 412.864L231.42 358.831C230.016 357.864 228.163 357.864 226.759 358.831L147.859 413.288C146.379 414.306 145.741 416.172 146.272 417.886C146.809 419.6 148.39 420.763 150.186 420.763H166.503L166.515 633.721C166.598 648.444 178.424 660.46 193.469 660.839C193.639 660.858 193.804 660.871 193.975 660.871H310.851H310.92C311.995 660.852 312.969 660.422 313.69 659.732C313.69 659.732 313.69 659.732 313.696 659.726C313.709 659.713 313.722 659.701 313.728 659.694C313.734 659.688 313.741 659.688 313.747 659.675L313.753 659.669L313.76 659.663L313.766 659.656L313.772 659.65L313.779 659.644L313.785 659.638C313.798 659.631 313.791 659.631 313.798 659.625C313.798 659.625 313.798 659.625 313.804 659.619L313.81 659.612C313.81 659.612 313.81 659.612 313.817 659.606C314.525 658.872 314.968 657.879 314.974 656.779V656.766V656.76V656.754V656.747V656.741V656.735V656.728V656.716C314.942 655.097 313.962 653.68 312.552 653.041Z" fill="#262626"/>
<path d="M481.639 653.041C481.639 653.041 481.633 653.035 481.627 653.035C481.62 653.035 481.614 653.029 481.608 653.029H481.601L481.595 653.023L481.589 653.016H481.582L481.576 653.01L481.57 653.004C481.576 652.997 481.564 652.997 481.557 652.997L481.551 652.991H481.545C481.538 652.991 481.538 652.985 481.538 652.985C481.526 652.991 481.526 652.978 481.526 652.978L481.513 652.972L481.507 652.966H481.5L481.494 652.959L481.488 652.953C481.481 652.947 481.475 652.947 481.475 652.947C481.469 652.953 481.469 652.94 481.456 652.94L481.45 652.934L481.443 652.928C481.443 652.928 481.437 652.928 481.431 652.921C481.424 652.915 481.412 652.915 481.405 652.915C481.399 652.915 481.386 652.909 481.38 652.909C481.374 652.902 481.374 652.902 481.367 652.902C481.361 652.902 481.361 652.902 481.355 652.896C481.355 652.896 481.349 652.896 481.342 652.89C481.323 652.883 481.336 652.883 481.33 652.883C481.311 652.883 481.323 652.883 481.317 652.877C481.317 652.877 481.311 652.871 481.304 652.871L481.298 652.864H481.292C480.918 652.732 480.52 652.649 480.103 652.63H480.09H480.084H480.071H480.065H480.058H480.052L480.046 652.624H480.033H480.02H480.014H480.008H480.001H479.989H479.976H479.97H479.964H479.957H479.951H479.945H479.938H479.932H479.926H479.919C469.453 652.624 460.884 644.099 460.82 633.652V468.434H477.13C477.187 468.428 477.232 468.428 477.295 468.434C479.559 468.434 481.393 466.6 481.393 464.336C481.393 462.623 480.343 461.155 478.85 460.542L400.558 406.509C399.154 405.541 397.301 405.541 395.897 406.509L317.029 460.959C315.549 461.977 314.911 463.843 315.442 465.557C315.979 467.271 317.56 468.434 319.356 468.434H335.597L335.609 633.715C335.679 648.444 347.524 660.466 362.575 660.839C362.74 660.858 362.904 660.864 363.069 660.864H479.945H480.014C481.089 660.845 482.063 660.415 482.784 659.726C482.784 659.726 482.784 659.726 482.79 659.72C482.803 659.707 482.828 659.694 482.822 659.688C482.828 659.682 482.835 659.682 482.841 659.669L482.847 659.663L482.854 659.656L482.86 659.65C482.86 659.65 482.866 659.65 482.866 659.644L482.873 659.638C482.879 659.638 482.879 659.631 482.879 659.631C482.898 659.625 482.892 659.625 482.892 659.619C482.892 659.619 482.892 659.619 482.898 659.612C482.898 659.612 482.898 659.612 482.904 659.606C482.904 659.606 482.904 659.606 482.911 659.6C483.619 658.866 484.062 657.873 484.068 656.773V656.76V656.754V656.747V656.741V656.735V656.728V656.722V656.709C484.03 655.097 483.05 653.68 481.639 653.041Z" fill="#262626"/>
<path d="M651.17 653.041L651.157 653.035C651.151 653.035 651.145 653.029 651.138 653.029H651.132L651.126 653.022L651.119 653.016C651.113 653.016 651.113 653.016 651.113 653.01H651.107L651.1 653.003L651.094 652.997C651.094 652.997 651.088 652.997 651.088 652.991H651.082L651.075 652.984C651.069 652.991 651.069 652.978 651.063 652.978C651.069 652.972 651.056 652.972 651.05 652.972L651.044 652.965H651.037L651.031 652.959L651.025 652.953C651.006 652.947 651.012 652.947 651.012 652.947C651.006 652.953 651.006 652.94 650.993 652.94L650.987 652.934C650.993 652.928 650.98 652.928 650.974 652.928C650.974 652.928 650.968 652.928 650.968 652.921C650.961 652.915 650.949 652.915 650.942 652.915C650.936 652.915 650.923 652.909 650.917 652.909L650.904 652.902C650.904 652.902 650.898 652.902 650.892 652.896L650.879 652.89C650.86 652.883 650.86 652.883 650.866 652.883C650.847 652.883 650.847 652.883 650.854 652.877C650.847 652.877 650.847 652.871 650.847 652.871C650.841 652.871 650.835 652.864 650.835 652.864H650.829C650.455 652.731 650.057 652.649 649.64 652.63H649.633H649.621H649.602H649.595H649.589H649.583C649.576 652.624 649.576 652.624 649.57 652.624H649.557H649.545H649.538H649.532H649.526H649.513H649.5C649.5 652.624 649.5 652.624 649.494 652.624H649.488H649.481H649.475H649.469H649.462H649.456H649.481H649.475C639.009 652.624 630.44 644.099 630.376 633.652V516.093H646.648H646.731C649.039 516.036 650.911 514.29 650.911 511.995C650.911 510.281 649.861 508.814 648.368 508.2L570.076 454.167C568.678 453.2 566.819 453.2 565.415 454.167L486.515 508.618C485.036 509.636 484.397 511.501 484.928 513.215C485.466 514.929 487.047 516.093 488.843 516.093H505.115L505.127 633.715C505.21 648.444 517.048 660.472 532.093 660.839C532.258 660.858 532.422 660.864 532.587 660.864H649.462H649.532C650.607 660.845 651.581 660.415 652.302 659.726L652.308 659.72C652.321 659.707 652.34 659.694 652.34 659.688C652.346 659.682 652.353 659.682 652.359 659.669L652.365 659.663L652.372 659.656L652.378 659.65L652.384 659.644L652.391 659.637L652.397 659.631C652.416 659.625 652.403 659.625 652.41 659.618C652.41 659.618 652.41 659.619 652.416 659.612L652.422 659.606C652.422 659.606 652.422 659.606 652.429 659.599C653.137 658.866 653.58 657.873 653.586 656.773V656.76V656.754V656.747V656.741V656.735V656.728V656.722V656.709C653.561 655.097 652.574 653.68 651.17 653.041Z" fill="#262626"/>
</svg>
