<svg xmlns="http://www.w3.org/2000/svg" width="56.36" height="56.357" viewBox="0 0 56.36 56.357">
  <path id="logo-next" d="M41.827,52.842c-.21.111-.192.146.009.044A.546.546,0,0,0,42,52.779c0-.037,0-.037-.176.063Zm.423-.229c-.1.083-.1.083.019.028a.437.437,0,0,0,.12-.083C42.389,52.511,42.36,52.521,42.249,52.613Zm.275-.166c-.1.083-.1.083.019.028a.433.433,0,0,0,.12-.085C42.663,52.347,42.635,52.356,42.524,52.447Zm.278-.164c-.1.083-.1.083.016.026a.374.374,0,0,0,.12-.083C42.938,52.183,42.91,52.192,42.8,52.284Zm.375-.248c-.192.129-.259.211-.083.12.118-.072.319-.231.284-.231a1.47,1.47,0,0,0-.2.111ZM26.335.017c-.129.009-.514.044-.852.072A28.245,28.245,0,0,0,5.229,11.767,27.877,27.877,0,0,0,.255,24.076,21.492,21.492,0,0,0,0,28.185a21.4,21.4,0,0,0,.255,4.1A28.3,28.3,0,0,0,19.528,55.052a30.6,30.6,0,0,0,5.955,1.24,52.927,52.927,0,0,0,5.391,0,28.532,28.532,0,0,0,10.157-2.973c.486-.247.578-.312.513-.366-1.55-2.045-3.072-4.091-4.595-6.155l-4.5-6.081L26.8,32.359q-2.821-4.2-5.687-8.355c-.019,0-.044,3.714-.055,8.244-.019,7.934-.019,8.256-.12,8.44a1.007,1.007,0,0,1-.486.505c-.174.083-.331.1-1.164.1h-.953l-.248-.155a1.048,1.048,0,0,1-.366-.4l-.12-.248.009-11.044L17.633,18.4l.174-.22a1.327,1.327,0,0,1,.4-.329c.231-.111.322-.129,1.275-.129,1.118,0,1.3.044,1.6.366,2.283,3.4,4.558,6.814,6.8,10.236C31.541,33.874,36.54,41.449,39,45.165l4.468,6.761.22-.146A28.789,28.789,0,0,0,49.47,46.7,28.064,28.064,0,0,0,56.1,32.3a21.5,21.5,0,0,0,.255-4.109,21.394,21.394,0,0,0-.255-4.1A28.3,28.3,0,0,0,36.832,1.32,29.911,29.911,0,0,0,30.971.092c-.534-.055-4.176-.12-4.634-.072ZM37.866,17.06a1.1,1.1,0,0,1,.558.641c.048.148.056,3.211.048,10.109l-.019,9.9L36.71,35.038l-1.752-2.679V25.168c0-4.662.019-7.276.044-7.4a1.179,1.179,0,0,1,.551-.7c.218-.111.3-.12,1.175-.12.815,0,.953.009,1.136.111Z" transform="translate(0 -0.004)" fill="#222"/>
</svg>
